<svg xmlns="http://www.w3.org/2000/svg" viewBox="0 0 736.39 480.04"><defs><style>.cls-1{fill:#ef3a43;}.cls-2,.cls-3{fill:#008352;}.cls-3{opacity:0.28;}</style></defs><title>Recurso 38</title><g id="Capa_2" data-name="Capa 2"><g id="astilleros"><path class="cls-1" d="M653.55,4.45l82.84,36.82L576.84,424.81S184.1,446.29,0,480c0,0,233.19-82.85,487.86-89Z"/><path class="cls-2" d="M6.14,389.27l23,36.82s159.55-70.57,392.74-47.56c0,0,14.37-37.29,34.93-88.51C362.88,232.2,10.88,396.85,10.88,396.85,388.33,165.16,472,252.48,472,252.52c8.75-21.48,18.13-44.18,27.68-66.84C272.15,137,6.14,389.27,6.14,389.27Z"/><path class="cls-2" d="M9,354.35c33.05-31.16,346.3-320,524.9-247.51-7.31,16.24-14.85,33.46-22.4,51C511.38,157.79,390.18,59.62,8,366.29Z"/><path class="cls-2" d="M570.69,0c-64,4.59-267,41.92-558.42,314.07l-1.61,19.81h0C412.22-21.88,543.62,85,543.81,85.13c13.78-29.67,26.33-54.53,36-69.95A9.91,9.91,0,0,0,570.69,0Z"/><path class="cls-3" d="M533.89,106.84l9.93-21.71h0q-4.86,10.49-9.92,21.71Z"/><path class="cls-3" d="M499.67,185.68l11.82-27.8h0c-3.95,9.2-7.9,18.49-11.82,27.8Z"/><path class="cls-3" d="M456.82,290,472,252.52h0c-5.32,13-10.41,25.65-15.17,37.5Z"/><path class="cls-2" d="M207.16,141c-26.64,13.21-84.77,53.43-121,98.28a3.1,3.1,0,0,1-5.49-2.17l3-43.51a8.09,8.09,0,0,0-6-8.38l-11.45-3A5.85,5.85,0,0,1,64,172c17.09-13.3,70-40.34,141.51-38.39A3.93,3.93,0,0,1,207.16,141Z"/></g></g></svg>